# xmcd
#
# Track frame offsets:
#	150
#	14639
#	32719
#	51367
#	70781
#	87064
#	108051
#	126758
#	143684
#	159722
#	179361
#	202972
#
# Disc length: 2967 seconds
#
# Revision: 1
# Processed by: cddbd v1.5.2PL0 Copyright (c) Steve Scherf et al.
# Submitted via: audiograbber 1.83.01
#
DISCID=9d0b950c
DTITLE=Alex Williams - Better Than Myself
DYEAR=2017
DGENRE=Country
TTITLE0=Better Than Myself
TTITLE1=Hellbent Hallelujah
TTITLE2=More Than Survival
TTITLE3=Freak Flag
TTITLE4=Week Without a Drink
TTITLE5=Little Too Stoned
TTITLE6=Old Tattoo
TTITLE7=Strange Days
TTITLE8=Pay No Mind
TTITLE9=Can't Get Enough of You
TTITLE10=Few Short Miles (Bobby's Song)
TTITLE11=Last Cross
EXTD=
EXTT0=
EXTT1=
EXTT2=
EXTT3=
EXTT4=
EXTT5=
EXTT6=
EXTT7=
EXTT8=
EXTT9=
EXTT10=
EXTT11=
PLAYORDER=
